<svg width="228" height="84" viewBox="0 0 228 84" fill="none" xmlns="http://www.w3.org/2000/svg">
<path d="M11.1609 6.3559V33.3333C11.1609 36.0349 11.8385 38.1119 13.1858 39.5643C14.5331 41.0166 16.5181 41.7506 19.1329 41.7506C21.7477 41.7506 23.7487 41.0244 25.1438 39.5643C26.5389 38.1041 27.2325 36.0271 27.2325 33.3333V6.3559H38.4013V33.2708C38.4013 37.2999 37.5324 40.7043 35.7865 43.484C34.1124 46.209 31.6729 48.3953 28.7631 49.7774C25.8215 51.1907 22.545 51.9012 18.9336 51.9012C15.3223 51.9012 12.0857 51.2063 9.23167 49.8164C6.38565 48.4344 4.0339 46.2403 2.47936 43.523C0.821176 40.7199 -0.00791508 37.2999 5.69439e-05 33.2786V6.3559H11.1609Z" fill="white"/>
<path d="M114.901 10.1819C114.303 9.65096 113.824 9.00288 113.505 8.27671C113.187 7.55055 113.027 6.76192 113.043 5.97329C113.027 5.16904 113.179 4.3726 113.498 3.63863C113.816 2.90466 114.295 2.24096 114.901 1.70219C116.136 0.57 117.739 0 119.7 0C121.613 0 123.192 0.57 124.435 1.70219C125.041 2.24096 125.511 2.90466 125.838 3.63863C126.157 4.3726 126.317 5.16904 126.293 5.97329C126.309 6.76192 126.149 7.55055 125.83 8.27671C125.511 9.00288 125.033 9.65096 124.435 10.1819C123.2 11.3141 121.621 11.8841 119.7 11.8841C117.779 11.8841 116.144 11.3141 114.901 10.1819Z" fill="url(#paint0_linear_49_1306)"/>
<path d="M56.2904 42.3986H72.0989V51.4561H43.8142V42.7187L58.969 24.6661H43.9497V15.6086H71.7721V24.346L56.2904 42.3986Z" fill="white"/>
<path d="M87.5863 53.2376C83.6651 51.0313 80.4306 47.6867 78.2374 43.5793C75.9666 39.4015 74.8257 34.5078 74.8257 28.8982C74.8257 23.2887 75.9777 18.4889 78.2706 14.2641C80.486 10.1449 83.7537 6.77686 87.7081 4.55886C91.6958 2.30565 96.182 1.17905 101.133 1.17905C106.085 1.17905 110.571 2.30565 114.559 4.55886C118.513 6.77686 121.781 10.1332 123.996 14.2641C126.3 18.4889 127.441 23.3591 127.441 28.8982C127.441 34.4374 126.278 39.3076 123.952 43.5323C121.703 47.6632 118.402 51.0313 114.415 53.2376C110.394 55.4908 105.896 56.6174 100.945 56.6174C95.9937 56.6174 91.5297 55.4908 87.5641 53.2376H87.5863ZM108.544 38.8499C110.626 36.538 111.668 33.2169 111.668 28.91C111.668 24.603 110.648 21.2819 108.621 18.97C107.68 17.8551 106.528 16.9632 105.232 16.3647C103.936 15.7662 102.54 15.4728 101.133 15.4963C98.1094 15.4963 95.5949 16.6347 93.601 18.9231C91.6072 21.2115 90.6103 24.5444 90.6103 28.9217C90.6103 33.299 91.5961 36.5497 93.5568 38.8616C94.4761 39.9882 95.617 40.8801 96.8909 41.4786C98.1647 42.0772 99.5604 42.3705 100.956 42.3353C102.374 42.3588 103.792 42.0537 105.099 41.4552C106.406 40.8567 107.58 39.9648 108.544 38.8499Z" fill="url(#paint1_linear_49_1306)"/>
<path d="M131.638 51.2055V24.6419C131.638 22.4192 132.185 20.4333 133.278 18.6842C134.371 16.8988 135.865 15.4959 137.76 14.4756C139.691 13.4553 141.877 12.9452 144.319 12.9452H159.459V22.1823H146.122C145.357 22.1823 144.72 22.4374 144.209 22.9475C143.699 23.4577 143.444 24.0953 143.444 24.8605V29.0692H157.71V38.0877H143.444V51.2055H131.638ZM164.832 51.2055V22.8929H175.327V51.2055H164.832ZM170.079 19.996C168.549 19.996 167.237 19.4494 166.144 18.3563C165.051 17.2267 164.504 15.9149 164.504 14.421C164.504 12.8905 165.051 11.5788 166.144 10.4856C167.237 9.35602 168.549 8.79123 170.079 8.79123C171.61 8.79123 172.922 9.35602 174.015 10.4856C175.108 11.5788 175.655 12.8905 175.655 14.421C175.655 15.9149 175.108 17.2267 174.015 18.3563C172.922 19.4494 171.61 19.996 170.079 19.996ZM211.091 51.916C208.759 51.916 206.555 51.4423 204.478 50.4949C202.437 49.5111 200.779 48.09 199.504 46.2316C198.229 44.3733 197.591 42.1141 197.591 39.4541V24.6419C197.591 24.1682 197.482 23.7674 197.263 23.4394C197.081 23.0751 196.826 22.8018 196.498 22.6196C196.17 22.4374 195.787 22.3463 195.35 22.3463C194.913 22.3463 194.512 22.4374 194.148 22.6196C193.82 22.8018 193.546 23.0751 193.328 23.4394C193.146 23.7674 193.054 24.1682 193.054 24.6419V51.2055H181.795V24.7512C181.795 22.0912 182.414 19.832 183.653 17.9737C184.929 16.1153 186.605 14.6942 188.682 13.7104C190.759 12.7266 192.982 12.2346 195.35 12.2346C197.719 12.2346 199.923 12.7266 201.964 13.7104C204.004 14.6942 205.662 16.1153 206.937 17.9737C208.213 19.832 208.85 22.0912 208.85 24.7512V39.5634C208.85 40.0371 208.96 40.4562 209.178 40.8205C209.397 41.1849 209.67 41.4582 209.998 41.6404C210.326 41.8226 210.672 41.9137 211.037 41.9137C211.438 41.9137 211.82 41.8226 212.185 41.6404C212.549 41.4582 212.84 41.1849 213.059 40.8205C213.278 40.4562 213.387 40.0371 213.387 39.5634V12.9452H224.592V39.4541C224.592 42.1141 223.954 44.3733 222.679 46.2316C221.403 48.09 219.727 49.5111 217.65 50.4949C215.61 51.4423 213.423 51.916 211.091 51.916Z" fill="white"/>
<path d="M10.5145 71.6174H9.13917C9.05783 71.2219 8.91549 70.8743 8.71215 70.5749C8.51251 70.2754 8.2685 70.024 7.98013 69.8207C7.69546 69.6136 7.37936 69.4583 7.03183 69.3548C6.68431 69.2513 6.322 69.1996 5.94489 69.1996C5.25724 69.1996 4.63428 69.3733 4.07602 69.7208C3.52146 70.0684 3.07966 70.5804 2.75062 71.257C2.42528 71.9335 2.26261 72.7635 2.26261 73.747C2.26261 74.7304 2.42528 75.5604 2.75062 76.2369C3.07966 76.9135 3.52146 77.4255 4.07602 77.7731C4.63428 78.1206 5.25724 78.2944 5.94489 78.2944C6.322 78.2944 6.68431 78.2426 7.03183 78.1391C7.37936 78.0356 7.69546 77.8821 7.98013 77.6788C8.2685 77.4718 8.51251 77.2185 8.71215 76.919C8.91549 76.6159 9.05783 76.2684 9.13917 75.8765H10.5145C10.411 76.4569 10.2224 76.9763 9.94882 77.4348C9.67524 77.8932 9.33511 78.2833 8.92843 78.6049C8.52175 78.9229 8.06517 79.165 7.55867 79.3314C7.05586 79.4978 6.51794 79.5809 5.94489 79.5809C4.97626 79.5809 4.11484 79.3443 3.36064 78.8711C2.60644 78.3979 2.01306 77.725 1.5805 76.8525C1.14794 75.98 0.931663 74.9448 0.931663 73.747C0.931663 72.5491 1.14794 71.5139 1.5805 70.6414C2.01306 69.7689 2.60644 69.096 3.36064 68.6228C4.11484 68.1496 4.97626 67.913 5.94489 67.913C6.51794 67.913 7.05586 67.9962 7.55867 68.1625C8.06517 68.3289 8.52175 68.5729 8.92843 68.8945C9.33511 69.2125 9.67524 69.6007 9.94882 70.0591C10.2224 70.5139 10.411 71.0333 10.5145 71.6174ZM17.5815 79.6031C16.8125 79.6031 16.1378 79.4201 15.5574 79.0541C14.9806 78.6881 14.5296 78.176 14.2042 77.518C13.8826 76.8599 13.7218 76.0909 13.7218 75.211C13.7218 74.3237 13.8826 73.5492 14.2042 72.8874C14.5296 72.2256 14.9806 71.7117 15.5574 71.3457C16.1378 70.9797 16.8125 70.7967 17.5815 70.7967C18.3505 70.7967 19.0234 70.9797 19.6001 71.3457C20.1806 71.7117 20.6316 72.2256 20.9533 72.8874C21.2786 73.5492 21.4413 74.3237 21.4413 75.211C21.4413 76.0909 21.2786 76.8599 20.9533 77.518C20.6316 78.176 20.1806 78.6881 19.6001 79.0541C19.0234 79.4201 18.3505 79.6031 17.5815 79.6031ZM17.5815 78.4274C18.1657 78.4274 18.6463 78.2777 19.0234 77.9783C19.4005 77.6788 19.6796 77.2851 19.8608 76.797C20.0419 76.309 20.1325 75.7803 20.1325 75.211C20.1325 74.6416 20.0419 74.1111 19.8608 73.6194C19.6796 73.1277 19.4005 72.7303 19.0234 72.4271C18.6463 72.1239 18.1657 71.9724 17.5815 71.9724C16.9974 71.9724 16.5168 72.1239 16.1397 72.4271C15.7626 72.7303 15.4834 73.1277 15.3023 73.6194C15.1211 74.1111 15.0305 74.6416 15.0305 75.211C15.0305 75.7803 15.1211 76.309 15.3023 76.797C15.4834 77.2851 15.7626 77.6788 16.1397 77.9783C16.5168 78.2777 16.9974 78.4274 17.5815 78.4274ZM26.3095 74.3015V79.4257H25.0007V70.9076H26.2651V72.2385H26.376C26.5757 71.806 26.8788 71.4585 27.2855 71.196C27.6922 70.9298 28.2172 70.7967 28.8605 70.7967C29.4372 70.7967 29.9419 70.915 30.3744 71.1516C30.807 71.3845 31.1434 71.7394 31.3837 72.2164C31.624 72.6896 31.7442 73.2885 31.7442 74.0131V79.4257H30.4354V74.1019C30.4354 73.4327 30.2617 72.9114 29.9141 72.538C29.5666 72.1609 29.0897 71.9724 28.4834 71.9724C28.0656 71.9724 27.6922 72.0629 27.3631 72.2441C27.0378 72.4253 26.7809 72.6896 26.5923 73.0371C26.4038 73.3846 26.3095 73.8061 26.3095 74.3015ZM37.0061 74.3015V79.4257H35.6974V70.9076H36.9618V72.2385H37.0727C37.2723 71.806 37.5755 71.4585 37.9822 71.196C38.3888 70.9298 38.9138 70.7967 39.5571 70.7967C40.1339 70.7967 40.6385 70.915 41.0711 71.1516C41.5036 71.3845 41.8401 71.7394 42.0804 72.2164C42.3207 72.6896 42.4408 73.2885 42.4408 74.0131V79.4257H41.1321V74.1019C41.1321 73.4327 40.9583 72.9114 40.6108 72.538C40.2633 72.1609 39.7863 71.9724 39.18 71.9724C38.7622 71.9724 38.3888 72.0629 38.0598 72.2441C37.7345 72.4253 37.4775 72.6896 37.289 73.0371C37.1004 73.3846 37.0061 73.8061 37.0061 74.3015ZM49.9654 79.6031C49.1446 79.6031 48.4367 79.422 47.8414 79.0596C47.2499 78.6936 46.7933 78.1834 46.4717 77.5291C46.1537 76.871 45.9947 76.1057 45.9947 75.2332C45.9947 74.3607 46.1537 73.5917 46.4717 72.9262C46.7933 72.257 47.2406 71.7357 47.8137 71.3623C48.3904 70.9852 49.0633 70.7967 49.8323 70.7967C50.2759 70.7967 50.714 70.8706 51.1466 71.0185C51.5792 71.1664 51.9729 71.4067 52.3278 71.7394C52.6827 72.0685 52.9656 72.5047 53.1763 73.0482C53.387 73.5917 53.4924 74.2608 53.4924 75.0557V75.6103H46.9264V74.479H52.1615C52.1615 73.9984 52.0653 73.5695 51.8731 73.1924C51.6845 72.8153 51.4146 72.5177 51.0634 72.2996C50.7159 72.0814 50.3055 71.9724 49.8323 71.9724C49.311 71.9724 48.86 72.1018 48.4792 72.3606C48.1021 72.6156 47.8118 72.9484 47.6085 73.3588C47.4052 73.7691 47.3035 74.2091 47.3035 74.6786V75.4328C47.3035 76.0761 47.4144 76.6214 47.6362 77.0688C47.8618 77.5124 48.1742 77.8507 48.5734 78.0836C48.9727 78.3128 49.4367 78.4274 49.9654 78.4274C50.3092 78.4274 50.6198 78.3794 50.8971 78.2833C51.178 78.1834 51.4202 78.0356 51.6235 77.8396C51.8269 77.64 51.984 77.3923 52.0949 77.0965L53.3593 77.4514C53.2262 77.8803 53.0025 78.2574 52.6883 78.5827C52.374 78.9044 51.9858 79.1558 51.5237 79.3369C51.0616 79.5144 50.5421 79.6031 49.9654 79.6031ZM60.5054 79.6031C59.7068 79.6031 59.0192 79.4146 58.4424 79.0375C57.8657 78.6604 57.422 78.1409 57.1115 77.4791C56.8009 76.8174 56.6456 76.0613 56.6456 75.211C56.6456 74.3459 56.8046 73.5824 57.1226 72.9207C57.4442 72.2552 57.8915 71.7357 58.4646 71.3623C59.0413 70.9852 59.7142 70.7967 60.4832 70.7967C61.0821 70.7967 61.6219 70.9076 62.1025 71.1294C62.5831 71.3513 62.9769 71.6618 63.2837 72.0611C63.5906 72.4604 63.781 72.9262 63.8549 73.4586H62.5462C62.4463 73.0704 62.2245 72.7266 61.8807 72.4271C61.5406 72.1239 61.0821 71.9724 60.5054 71.9724C59.9952 71.9724 59.5478 72.1055 59.1633 72.3716C58.7825 72.6341 58.4849 73.0057 58.2705 73.4863C58.0598 73.9632 57.9544 74.5233 57.9544 75.1666C57.9544 75.8247 58.0579 76.3978 58.265 76.8858C58.4757 77.3738 58.7715 77.7527 59.1522 78.0226C59.5367 78.2925 59.9878 78.4274 60.5054 78.4274C60.8455 78.4274 61.1542 78.3683 61.4315 78.25C61.7088 78.1317 61.9435 77.9616 62.1358 77.7398C62.328 77.518 62.4648 77.2518 62.5462 76.9412H63.8549C63.781 77.444 63.598 77.8969 63.3059 78.2999C63.0175 78.6992 62.6349 79.0171 62.158 79.2537C61.6847 79.4867 61.1339 79.6031 60.5054 79.6031ZM71.0343 70.9076V72.0167H66.62V70.9076H71.0343ZM67.9066 68.8668H69.2153V76.9856C69.2153 77.3553 69.2689 77.6326 69.3761 77.8174C69.4871 77.9986 69.6275 78.1206 69.7976 78.1834C69.9714 78.2426 70.1544 78.2722 70.3466 78.2722C70.4908 78.2722 70.6091 78.2648 70.7015 78.25C70.794 78.2315 70.8679 78.2167 70.9234 78.2056L71.1896 79.3813C71.1008 79.4146 70.977 79.4478 70.818 79.4811C70.659 79.5181 70.4575 79.5366 70.2135 79.5366C69.8438 79.5366 69.4815 79.4571 69.1266 79.2981C68.7754 79.1391 68.4833 78.897 68.2504 78.5716C68.0212 78.2463 67.9066 77.8359 67.9066 77.3405V68.8668ZM75.5185 79.5144C75.2449 79.5144 75.0101 79.4164 74.8142 79.2205C74.6182 79.0245 74.5202 78.7898 74.5202 78.5162C74.5202 78.2426 74.6182 78.0078 74.8142 77.8119C75.0101 77.6159 75.2449 77.518 75.5185 77.518C75.792 77.518 76.0268 77.6159 76.2227 77.8119C76.4187 78.0078 76.5167 78.2426 76.5167 78.5162C76.5167 78.6973 76.4705 78.8637 76.378 79.0153C76.2893 79.1669 76.1691 79.2889 76.0176 79.3813C75.8697 79.47 75.7033 79.5144 75.5185 79.5144ZM95.6973 71.6174H94.322C94.2406 71.2219 94.0983 70.8743 93.8949 70.5749C93.6953 70.2754 93.4513 70.024 93.1629 69.8207C92.8783 69.6136 92.5622 69.4583 92.2146 69.3548C91.8671 69.2513 91.5048 69.1996 91.1277 69.1996C90.44 69.1996 89.8171 69.3733 89.2588 69.7208C88.7043 70.0684 88.2625 70.5804 87.9334 71.257C87.6081 71.9335 87.4454 72.7635 87.4454 73.747C87.4454 74.7304 87.6081 75.5604 87.9334 76.2369C88.2625 76.9135 88.7043 77.4255 89.2588 77.7731C89.8171 78.1206 90.44 78.2944 91.1277 78.2944C91.5048 78.2944 91.8671 78.2426 92.2146 78.1391C92.5622 78.0356 92.8783 77.8821 93.1629 77.6788C93.4513 77.4718 93.6953 77.2185 93.8949 76.919C94.0983 76.6159 94.2406 76.2684 94.322 75.8765H95.6973C95.5938 76.4569 95.4052 76.9763 95.1316 77.4348C94.858 77.8932 94.5179 78.2833 94.1112 78.6049C93.7045 78.9229 93.248 79.165 92.7415 79.3314C92.2387 79.4978 91.7007 79.5809 91.1277 79.5809C90.1591 79.5809 89.2976 79.3443 88.5434 78.8711C87.7892 78.3979 87.1958 77.725 86.7633 76.8525C86.3307 75.98 86.1145 74.9448 86.1145 73.747C86.1145 72.5491 86.3307 71.5139 86.7633 70.6414C87.1958 69.7689 87.7892 69.096 88.5434 68.6228C89.2976 68.1496 90.1591 67.913 91.1277 67.913C91.7007 67.913 92.2387 67.9962 92.7415 68.1625C93.248 68.3289 93.7045 68.5729 94.1112 68.8945C94.5179 69.2125 94.858 69.6007 95.1316 70.0591C95.4052 70.5139 95.5938 71.0333 95.6973 71.6174ZM102.764 79.6031C101.995 79.6031 101.321 79.4201 100.74 79.0541C100.163 78.6881 99.7124 78.176 99.387 77.518C99.0654 76.8599 98.9046 76.0909 98.9046 75.211C98.9046 74.3237 99.0654 73.5492 99.387 72.8874C99.7124 72.2256 100.163 71.7117 100.74 71.3457C101.321 70.9797 101.995 70.7967 102.764 70.7967C103.533 70.7967 104.206 70.9797 104.783 71.3457C105.363 71.7117 105.814 72.2256 106.136 72.8874C106.461 73.5492 106.624 74.3237 106.624 75.211C106.624 76.0909 106.461 76.8599 106.136 77.518C105.814 78.176 105.363 78.6881 104.783 79.0541C104.206 79.4201 103.533 79.6031 102.764 79.6031ZM102.764 78.4274C103.348 78.4274 103.829 78.2777 104.206 77.9783C104.583 77.6788 104.862 77.2851 105.044 76.797C105.225 76.309 105.315 75.7803 105.315 75.211C105.315 74.6416 105.225 74.1111 105.044 73.6194C104.862 73.1277 104.583 72.7303 104.206 72.4271C103.829 72.1239 103.348 71.9724 102.764 71.9724C102.18 71.9724 101.7 72.1239 101.322 72.4271C100.945 72.7303 100.666 73.1277 100.485 73.6194C100.304 74.1111 100.213 74.6416 100.213 75.211C100.213 75.7803 100.304 76.309 100.485 76.797C100.666 77.2851 100.945 77.6788 101.322 77.9783C101.7 78.2777 102.18 78.4274 102.764 78.4274ZM111.492 74.3015V79.4257H110.184V70.9076H111.448V72.2385H111.559C111.758 71.806 112.062 71.4585 112.468 71.196C112.875 70.9298 113.4 70.7967 114.043 70.7967C114.62 70.7967 115.125 70.915 115.557 71.1516C115.99 71.3845 116.326 71.7394 116.567 72.2164C116.807 72.6896 116.927 73.2885 116.927 74.0131V79.4257H115.618V74.1019C115.618 73.4327 115.444 72.9114 115.097 72.538C114.749 72.1609 114.272 71.9724 113.666 71.9724C113.248 71.9724 112.875 72.0629 112.546 72.2441C112.221 72.4253 111.964 72.6896 111.775 73.0371C111.587 73.3846 111.492 73.8061 111.492 74.3015ZM124.585 70.9076V72.0167H120.17V70.9076H124.585ZM121.457 68.8668H122.766V76.9856C122.766 77.3553 122.819 77.6326 122.926 77.8174C123.037 77.9986 123.178 78.1206 123.348 78.1834C123.522 78.2426 123.705 78.2722 123.897 78.2722C124.041 78.2722 124.159 78.2648 124.252 78.25C124.344 78.2315 124.418 78.2167 124.474 78.2056L124.74 79.3813C124.651 79.4146 124.527 79.4478 124.368 79.4811C124.209 79.5181 124.008 79.5366 123.764 79.5366C123.394 79.5366 123.032 79.4571 122.677 79.2981C122.326 79.1391 122.034 78.897 121.801 78.5716C121.572 78.2463 121.457 77.8359 121.457 77.3405V68.8668ZM128.115 79.4257V70.9076H129.379V72.1942H129.468C129.623 71.7727 129.904 71.4307 130.311 71.1682C130.718 70.9058 131.176 70.7745 131.686 70.7745C131.782 70.7745 131.903 70.7764 132.047 70.7801C132.191 70.7837 132.3 70.7893 132.374 70.7967V72.1276C132.33 72.1165 132.228 72.0999 132.069 72.0777C131.914 72.0518 131.749 72.0389 131.575 72.0389C131.161 72.0389 130.792 72.1258 130.466 72.2996C130.145 72.4696 129.89 72.7062 129.701 73.0094C129.516 73.3089 129.424 73.6508 129.424 74.0353V79.4257H128.115ZM138.688 79.6031C137.919 79.6031 137.245 79.4201 136.664 79.0541C136.087 78.6881 135.636 78.176 135.311 77.518C134.989 76.8599 134.828 76.0909 134.828 75.211C134.828 74.3237 134.989 73.5492 135.311 72.8874C135.636 72.2256 136.087 71.7117 136.664 71.3457C137.245 70.9797 137.919 70.7967 138.688 70.7967C139.457 70.7967 140.13 70.9797 140.707 71.3457C141.287 71.7117 141.738 72.2256 142.06 72.8874C142.385 73.5492 142.548 74.3237 142.548 75.211C142.548 76.0909 142.385 76.8599 142.06 77.518C141.738 78.176 141.287 78.6881 140.707 79.0541C140.13 79.4201 139.457 79.6031 138.688 79.6031ZM138.688 78.4274C139.272 78.4274 139.753 78.2777 140.13 77.9783C140.507 77.6788 140.786 77.2851 140.967 76.797C141.149 76.309 141.239 75.7803 141.239 75.211C141.239 74.6416 141.149 74.1111 140.967 73.6194C140.786 73.1277 140.507 72.7303 140.13 72.4271C139.753 72.1239 139.272 71.9724 138.688 71.9724C138.104 71.9724 137.623 72.1239 137.246 72.4271C136.869 72.7303 136.59 73.1277 136.409 73.6194C136.228 74.1111 136.137 74.6416 136.137 75.211C136.137 75.7803 136.228 76.309 136.409 76.797C136.59 77.2851 136.869 77.6788 137.246 77.9783C137.623 78.2777 138.104 78.4274 138.688 78.4274ZM147.416 68.0682V79.4257H146.107V68.0682H147.416ZM152.329 79.5144C152.055 79.5144 151.82 79.4164 151.624 79.2205C151.429 79.0245 151.331 78.7898 151.331 78.5162C151.331 78.2426 151.429 78.0078 151.624 77.8119C151.82 77.6159 152.055 77.518 152.329 77.518C152.602 77.518 152.837 77.6159 153.033 77.8119C153.229 78.0078 153.327 78.2426 153.327 78.5162C153.327 78.6973 153.281 78.8637 153.188 79.0153C153.1 79.1669 152.979 79.2889 152.828 79.3813C152.68 79.47 152.514 79.5144 152.329 79.5144ZM172.508 71.6174H171.132C171.051 71.2219 170.909 70.8743 170.705 70.5749C170.506 70.2754 170.262 70.024 169.973 69.8207C169.689 69.6136 169.372 69.4583 169.025 69.3548C168.677 69.2513 168.315 69.1996 167.938 69.1996C167.25 69.1996 166.627 69.3733 166.069 69.7208C165.515 70.0684 165.073 70.5804 164.744 71.257C164.418 71.9335 164.256 72.7635 164.256 73.747C164.256 74.7304 164.418 75.5604 164.744 76.2369C165.073 76.9135 165.515 77.4255 166.069 77.7731C166.627 78.1206 167.25 78.2944 167.938 78.2944C168.315 78.2944 168.677 78.2426 169.025 78.1391C169.372 78.0356 169.689 77.8821 169.973 77.6788C170.262 77.4718 170.506 77.2185 170.705 76.919C170.909 76.6159 171.051 76.2684 171.132 75.8765H172.508C172.404 76.4569 172.215 76.9763 171.942 77.4348C171.668 77.8932 171.328 78.2833 170.922 78.6049C170.515 78.9229 170.058 79.165 169.552 79.3314C169.049 79.4978 168.511 79.5809 167.938 79.5809C166.969 79.5809 166.108 79.3443 165.354 78.8711C164.6 78.3979 164.006 77.725 163.574 76.8525C163.141 75.98 162.925 74.9448 162.925 73.747C162.925 72.5491 163.141 71.5139 163.574 70.6414C164.006 69.7689 164.6 69.096 165.354 68.6228C166.108 68.1496 166.969 67.913 167.938 67.913C168.511 67.913 169.049 67.9962 169.552 68.1625C170.058 68.3289 170.515 68.5729 170.922 68.8945C171.328 69.2125 171.668 69.6007 171.942 70.0591C172.215 70.5139 172.404 71.0333 172.508 71.6174ZM179.575 79.6031C178.806 79.6031 178.131 79.4201 177.55 79.0541C176.974 78.6881 176.523 78.176 176.197 77.518C175.876 76.8599 175.715 76.0909 175.715 75.211C175.715 74.3237 175.876 73.5492 176.197 72.8874C176.523 72.2256 176.974 71.7117 177.55 71.3457C178.131 70.9797 178.806 70.7967 179.575 70.7967C180.344 70.7967 181.016 70.9797 181.593 71.3457C182.174 71.7117 182.625 72.2256 182.946 72.8874C183.272 73.5492 183.434 74.3237 183.434 75.211C183.434 76.0909 183.272 76.8599 182.946 77.518C182.625 78.176 182.174 78.6881 181.593 79.0541C181.016 79.4201 180.344 79.6031 179.575 79.6031ZM179.575 78.4274C180.159 78.4274 180.639 78.2777 181.016 77.9783C181.394 77.6788 181.673 77.2851 181.854 76.797C182.035 76.309 182.126 75.7803 182.126 75.211C182.126 74.6416 182.035 74.1111 181.854 73.6194C181.673 73.1277 181.394 72.7303 181.016 72.4271C180.639 72.1239 180.159 71.9724 179.575 71.9724C178.99 71.9724 178.51 72.1239 178.133 72.4271C177.756 72.7303 177.477 73.1277 177.295 73.6194C177.114 74.1111 177.024 74.6416 177.024 75.211C177.024 75.7803 177.114 76.309 177.295 76.797C177.477 77.2851 177.756 77.6788 178.133 77.9783C178.51 78.2777 178.99 78.4274 179.575 78.4274ZM186.994 79.4257V70.9076H188.258V72.2385H188.369C188.547 71.7838 188.833 71.4307 189.229 71.1793C189.624 70.9242 190.099 70.7967 190.654 70.7967C191.216 70.7967 191.684 70.9242 192.057 71.1793C192.434 71.4307 192.728 71.7838 192.939 72.2385H193.027C193.246 71.7986 193.573 71.4492 194.009 71.1904C194.445 70.9279 194.968 70.7967 195.578 70.7967C196.34 70.7967 196.963 71.0352 197.447 71.5121C197.932 71.9853 198.174 72.7229 198.174 73.7248V79.4257H196.865V73.7248C196.865 73.0963 196.693 72.6471 196.349 72.3772C196.005 72.1073 195.601 71.9724 195.135 71.9724C194.536 71.9724 194.072 72.1535 193.743 72.5158C193.414 72.8744 193.249 73.3292 193.249 73.88V79.4257H191.918V73.5917C191.918 73.1074 191.761 72.7173 191.447 72.4216C191.133 72.1221 190.728 71.9724 190.232 71.9724C189.892 71.9724 189.574 72.0629 189.279 72.2441C188.987 72.4253 188.75 72.6767 188.569 72.9983C188.391 73.3162 188.303 73.6841 188.303 74.1019V79.4257H186.994ZM202.128 82.6199V70.9076H203.393V72.2607H203.548C203.644 72.1128 203.777 71.9243 203.947 71.6951C204.121 71.4622 204.369 71.2551 204.69 71.074C205.016 70.8891 205.456 70.7967 206.01 70.7967C206.727 70.7967 207.36 70.976 207.907 71.3346C208.454 71.6932 208.881 72.2016 209.188 72.8597C209.495 73.5177 209.648 74.2941 209.648 75.1888C209.648 76.0909 209.495 76.8728 209.188 77.5346C208.881 78.1927 208.456 78.7029 207.912 79.0652C207.369 79.4238 206.742 79.6031 206.032 79.6031C205.485 79.6031 205.047 79.5125 204.718 79.3314C204.389 79.1465 204.136 78.9376 203.958 78.7047C203.781 78.4681 203.644 78.2722 203.548 78.1169H203.437V82.6199H202.128ZM203.415 75.1666C203.415 75.8099 203.509 76.3774 203.698 76.8691C203.886 77.3571 204.162 77.7398 204.524 78.0171C204.886 78.2907 205.33 78.4274 205.855 78.4274C206.402 78.4274 206.859 78.2833 207.225 77.9949C207.594 77.7028 207.872 77.3109 208.057 76.8192C208.245 76.3238 208.339 75.773 208.339 75.1666C208.339 74.5677 208.247 74.0279 208.062 73.5473C207.881 73.063 207.606 72.6803 207.236 72.3994C206.87 72.1147 206.41 71.9724 205.855 71.9724C205.323 71.9724 204.875 72.1073 204.513 72.3772C204.151 72.6434 203.877 73.0168 203.692 73.4974C203.507 73.9743 203.415 74.5307 203.415 75.1666ZM214.515 68.0682V79.4257H213.206V68.0682H214.515ZM219.317 82.6199C219.095 82.6199 218.897 82.6014 218.723 82.5645C218.55 82.5312 218.429 82.4979 218.363 82.4647L218.696 81.3112C219.014 81.3925 219.294 81.4221 219.539 81.3999C219.783 81.3777 219.999 81.2687 220.187 81.0727C220.38 80.8805 220.555 80.5681 220.714 80.1355L220.958 79.47L217.808 70.9076H219.228L221.579 77.6954H221.668L224.019 70.9076H225.439L221.823 80.6679C221.661 81.1078 221.459 81.472 221.219 81.7604C220.979 82.0524 220.699 82.2687 220.381 82.4092C220.067 82.5497 219.712 82.6199 219.317 82.6199Z" fill="#A4A6AF"/>
<defs>
<linearGradient id="paint0_linear_49_1306" x1="119.668" y1="11.8841" x2="119.668" y2="0" gradientUnits="userSpaceOnUse">
<stop offset="0.100962" stop-color="#320F4F"/>
<stop offset="1" stop-color="#38C0EE"/>
</linearGradient>
<linearGradient id="paint1_linear_49_1306" x1="101.133" y1="56.6174" x2="101.133" y2="1.17905" gradientUnits="userSpaceOnUse">
<stop stop-color="#37CCF7"/>
<stop offset="1" stop-color="#39105E"/>
</linearGradient>
</defs>
</svg>
