<svg width="27" height="28" viewBox="0 0 27 28" fill="none" xmlns="http://www.w3.org/2000/svg">
<path d="M6.3803 26.0293C4.41969 24.9261 2.80245 23.2538 1.70584 21.2001C0.570454 19.1112 0 16.6644 0 13.8596C0 11.0548 0.575992 8.65491 1.72245 6.54252C2.83015 4.48295 4.46399 2.79891 6.44122 1.68991C8.43506 0.563301 10.6782 0 13.1538 0C15.6295 0 17.8726 0.563301 19.8665 1.68991C21.8437 2.79891 23.4775 4.47708 24.5852 6.54252C25.7372 8.65491 26.3077 11.09 26.3077 13.8596C26.3077 16.6292 25.7261 19.0643 24.5631 21.1767C23.4388 23.2421 21.7883 24.9261 19.7945 26.0293C17.784 27.1559 15.5354 27.7192 13.0597 27.7192C10.584 27.7192 8.352 27.1559 6.36923 26.0293H6.3803ZM16.8591 18.8354C17.9003 17.6795 18.4209 16.0189 18.4209 13.8655C18.4209 11.712 17.9114 10.0514 16.8978 8.89548C16.4271 8.33805 15.8511 7.8921 15.2031 7.59285C14.5551 7.29359 13.8572 7.1469 13.1538 7.15863C11.6418 7.15863 10.3846 7.72781 9.38768 8.87201C8.39076 10.0162 7.89231 11.6827 7.89231 13.8713C7.89231 16.06 8.38523 17.6853 9.36554 18.8413C9.82523 19.4046 10.3957 19.8505 11.0326 20.1498C11.6695 20.4491 12.3674 20.5957 13.0652 20.5781C13.7742 20.5899 14.4831 20.4373 15.1366 20.1381C15.7901 19.8388 16.3772 19.3929 16.8591 18.8354Z" fill="url(#paint0_linear_49_1330)"/>
<defs>
<linearGradient id="paint0_linear_49_1330" x1="13.1538" y1="27.7192" x2="13.1538" y2="0" gradientUnits="userSpaceOnUse">
<stop stop-color="#37CCF7"/>
<stop offset="1" stop-color="#39105E"/>
</linearGradient>
</defs>
</svg>
