<svg width="53" height="62" viewBox="0 0 53 62" fill="none" xmlns="http://www.w3.org/2000/svg">
<path d="M20.8586 10.1819C20.2607 9.65096 19.7824 9.00288 19.4635 8.27671C19.1446 7.55055 18.9852 6.76192 19.0011 5.97329C18.9852 5.16904 19.1367 4.3726 19.4555 3.63863C19.7744 2.90466 20.2527 2.24096 20.8586 1.70219C22.0943 0.57 23.6967 0 25.6578 0C27.5711 0 29.1495 0.57 30.3932 1.70219C30.999 2.24096 31.4694 2.90466 31.7962 3.63863C32.1151 4.3726 32.2746 5.16904 32.2506 5.97329C32.2666 6.76192 32.1072 7.55055 31.7883 8.27671C31.4694 9.00288 30.9911 9.65096 30.3932 10.1819C29.1575 11.3141 27.5791 11.8841 25.6578 11.8841C23.7365 11.8841 22.1022 11.3141 20.8586 10.1819Z" fill="url(#paint0_linear_117_281)"/>
<path d="M12.7606 58.0585C8.83937 55.8523 5.60491 52.5077 3.41168 48.4002C1.14091 44.2224 0 39.3287 0 33.7192C0 28.1096 1.15198 23.3098 3.44491 19.085C5.66029 14.9659 8.92797 11.5978 12.8824 9.37981C16.8701 7.1266 21.3563 6 26.3077 6C31.2591 6 35.7452 7.1266 39.7329 9.37981C43.6874 11.5978 46.9551 14.9542 49.1704 19.085C51.4744 23.3098 52.6154 28.18 52.6154 33.7192C52.6154 39.2583 51.4523 44.1285 49.1261 48.3533C46.8775 52.4842 43.5766 55.8523 39.5889 58.0585C35.568 60.3117 31.0708 61.4384 26.1194 61.4384C21.168 61.4384 16.704 60.3117 12.7385 58.0585H12.7606ZM33.7182 43.6709C35.8006 41.359 36.8418 38.0378 36.8418 33.7309C36.8418 29.424 35.8227 26.1029 33.7957 23.791C32.8541 22.6761 31.7021 21.7842 30.4061 21.1857C29.1101 20.5872 27.7145 20.2938 26.3077 20.3173C23.2837 20.3173 20.7692 21.4556 18.7754 23.744C16.7815 26.0324 15.7846 29.3653 15.7846 33.7426C15.7846 38.12 16.7705 41.3707 18.7311 43.6826C19.6505 44.8092 20.7914 45.7011 22.0652 46.2996C23.3391 46.8981 24.7348 47.1915 26.1305 47.1563C27.5483 47.1798 28.9661 46.8746 30.2732 46.2761C31.5803 45.6776 32.7545 44.7857 33.7182 43.6709Z" fill="url(#paint1_linear_117_281)"/>
<defs>
<linearGradient id="paint0_linear_117_281" x1="25.6265" y1="11.8841" x2="25.6265" y2="0" gradientUnits="userSpaceOnUse">
<stop offset="0.100962" stop-color="#320F4F"/>
<stop offset="1" stop-color="#38C0EE"/>
</linearGradient>
<linearGradient id="paint1_linear_117_281" x1="26.3077" y1="61.4384" x2="26.3077" y2="6" gradientUnits="userSpaceOnUse">
<stop stop-color="#37CCF7"/>
<stop offset="1" stop-color="#39105E"/>
</linearGradient>
</defs>
</svg>
